<?xml version="1.0" encoding="UTF-8" standalone="no"?>
<!-- Created with Inkscape (http://www.inkscape.org/) -->

<svg
   width="243.40039"
   height="303.07251"
   viewBox="0 0 243.40039 303.07251"
   version="1.1"
   id="svg5"
   inkscape:export-filename="logo.svg"
   inkscape:export-xdpi="96"
   inkscape:export-ydpi="96"
   inkscape:version="1.2.2 (b0a8486541, 2022-12-01)"
   sodipodi:docname="logo.svg"
   xmlns:inkscape="http://www.inkscape.org/namespaces/inkscape"
   xmlns:sodipodi="http://sodipodi.sourceforge.net/DTD/sodipodi-0.dtd"
   xmlns:xlink="http://www.w3.org/1999/xlink"
   xmlns="http://www.w3.org/2000/svg"
   xmlns:svg="http://www.w3.org/2000/svg">
  <sodipodi:namedview
     id="namedview7"
     pagecolor="#505050"
     bordercolor="#ffffff"
     borderopacity="1"
     inkscape:showpageshadow="0"
     inkscape:pageopacity="0"
     inkscape:pagecheckerboard="1"
     inkscape:deskcolor="#505050"
     inkscape:document-units="px"
     showgrid="false"
     inkscape:zoom="0.93717805"
     inkscape:cx="159.52145"
     inkscape:cy="291.83355"
     inkscape:window-width="1280"
     inkscape:window-height="1487"
     inkscape:window-x="26"
     inkscape:window-y="23"
     inkscape:window-maximized="0"
     inkscape:current-layer="layer1" />
  <defs
     id="defs2" />
  <g
     inkscape:label="Layer 1"
     inkscape:groupmode="layer"
     id="layer1"
     transform="translate(-793.88086,-97.575363)">
    <path
       id="path3184"
       style="font-size:133.333px;-inkscape-font-specification:sans-serif;fill:#d2d4c8;fill-opacity:1;stroke-width:5;stroke-linecap:round;stroke-linejoin:round"
       d="m -958.73126,286.82213 -62.79984,-27.59993 v -6.66665 l 62.79984,-31.33325 v 10.39997 l -50.26654,23.73327 50.26654,21.06662 z m 88.88605,0 62.79984,-27.59993 v -6.66665 l -62.79984,-31.33325 v 10.39997 l 50.26654,23.73327 -50.26654,21.06662 z"
       transform="scale(-1,1)" />
    <path
       id="path1250"
       style="color:#000000;display:none;fill:#000000;stroke-linecap:round;stroke-linejoin:round;-inkscape-stroke:none"
       d="m 884.75,175.86434 a 7.5,7.5 0 0 0 -7.5,7.5 7.5,7.5 0 0 0 2.68164,5.73828 v 2.9414 60.01563 a 5.0005,5.0005 0 0 0 1.46484,3.53516 l 15.41407,15.41406 5.17578,-8.96485 -12.05469,-12.05468 v -7.54102 l 15.64063,-15.64062 a 5.0005,5.0005 0 0 0 1.46484,-3.53711 V 199.6534 a 5,5 0 0 0 -0.45117,-2.06445 7.5,7.5 0 0 0 2.64062,-5.70704 7.5,7.5 0 0 0 -7.5,-7.5 7.5,7.5 0 0 0 -7.5,7.5 7.5,7.5 0 0 0 3.14258,6.08399 5,5 0 0 0 -0.33203,1.6875 v 21.54687 l -7.10547,7.10547 v -36.26172 -3.27929 a 7.5,7.5 0 0 0 2.31836,-5.40039 7.5,7.5 0 0 0 -7.5,-7.5 z m 56.3418,26.69336 a 7.5,7.5 0 0 0 -7.5,7.5 7.5,7.5 0 0 0 0.39258,2.35156 5,5 0 0 0 -1.01563,1.1582 l -48.92187,84.73438 a 5.0005,5.0005 0 0 0 -0.66993,2.5 v 72.51757 a 5,5 0 0 0 5,5 5,5 0 0 0 5,-5 v -71.17773 l 48.25196,-83.57422 a 5,5 0 0 0 0.44531,-1.08203 7.5,7.5 0 0 0 6.51758,-7.42773 7.5,7.5 0 0 0 -7.5,-7.5 z m 0.55273,29.68164 a 7.5,7.5 0 0 0 -7.5,7.5 7.5,7.5 0 0 0 2.45313,5.53515 v 4.76368 27.23242 l -4.70899,8.15625 7.38086,7.21679 7.32813,-12.69336 v -29.9121 -4.67188 a 7.5,7.5 0 0 0 2.54687,-5.62695 7.5,7.5 0 0 0 -7.5,-7.5 z m -27.17578,39.32617 -5.17578,8.76562 23.07422,22.5586 v 69.24218 4.88868 h 10 v -4.88868 -71.26562 a 5.0005,4.8889333 0 0 0 -1.46485,-3.45703 z m 8.39258,25.58008 -6.25977,10.84179 v 68.67579 a 116.80671,116.80671 0 0 0 10,-0.7129 v -65.2832 l 3.64063,-6.30664 z" />
    <path
       id="path1527"
       style="color:#000000;display:inline;fill:#e0e2db;fill-opacity:1;stroke-linecap:round;stroke-linejoin:round;-inkscape-stroke:none"
       d="m 922.86133,297.14648 -6.25977,10.8418 v 61.37305 l 10,0.82617 v -59.51953 l 3.64063,-6.30664 z" />
    <path
       id="path1525"
       style="color:#000000;display:inline;fill:#e0e2db;fill-opacity:1;stroke-linecap:round;stroke-linejoin:round;-inkscape-stroke:none"
       d="m 914.46875,271.56641 -5.17578,8.76562 23.07422,22.55859 v 66.26563 a 116.80671,116.80671 0 0 0 10,-1.79687 v -66.49219 a 5.0005,4.8889333 0 0 0 -1.46485,-3.45703 z" />
    <path
       style="color:#000000;display:inline;fill:#e0e2db;fill-opacity:1;stroke-linecap:round;stroke-linejoin:round;-inkscape-stroke:none"
       d="m 941.64453,232.23934 a 7.5,7.5 0 0 0 -7.5,7.5 7.5,7.5 0 0 0 2.45313,5.53515 v 4.76368 27.23242 l -4.70899,8.15625 7.38086,7.21679 7.32813,-12.69336 v -29.9121 -4.67188 a 7.5,7.5 0 0 0 2.54687,-5.62695 7.5,7.5 0 0 0 -7.5,-7.5 z"
       id="path1523" />
    <path
       id="path1521"
       style="color:#000000;display:inline;fill:#889696;fill-opacity:1;stroke-linecap:round;stroke-linejoin:round;-inkscape-stroke:none"
       d="m 941.0918,202.55859 a 7.5,7.5 0 0 0 -7.5,7.5 7.5,7.5 0 0 0 0.39258,2.35157 5,5 0 0 0 -1.01563,1.1582 l -48.92187,84.73437 a 5.0005,5.0005 0 0 0 -0.66993,2.5 v 65.81446 l 10,0.82617 v -65.30078 l 48.25196,-83.57422 a 5,5 0 0 0 0.44531,-1.08203 7.5,7.5 0 0 0 6.51758,-7.42774 7.5,7.5 0 0 0 -7.5,-7.5 z" />
    <path
       style="color:#000000;display:inline;fill:#e0e2db;fill-opacity:1;stroke-linecap:round;stroke-linejoin:round;-inkscape-stroke:none"
       d="m 884.75,175.86434 a 7.5,7.5 0 0 0 -7.5,7.5 7.5,7.5 0 0 0 2.68164,5.73828 v 2.9414 60.01563 a 5.0005,5.0005 0 0 0 1.46484,3.53516 l 15.41407,15.41406 5.17578,-8.96485 -12.05469,-12.05468 v -7.54102 l 15.64063,-15.64062 a 5.0005,5.0005 0 0 0 1.46484,-3.53711 V 199.6534 a 5,5 0 0 0 -0.45117,-2.06445 7.5,7.5 0 0 0 2.64062,-5.70704 7.5,7.5 0 0 0 -7.5,-7.5 7.5,7.5 0 0 0 -7.5,7.5 7.5,7.5 0 0 0 3.14258,6.08399 5,5 0 0 0 -0.33203,1.6875 v 21.54687 l -7.10547,7.10547 v -36.26172 -3.27929 a 7.5,7.5 0 0 0 2.31836,-5.40039 7.5,7.5 0 0 0 -7.5,-7.5 z"
       id="path1491" />
    <path
       style="color:#000000;display:inline;fill:#889696;fill-opacity:1;-inkscape-stroke:none"
       d="m 915.58398,133.92578 c -67.15923,0 -121.69726,54.53804 -121.69726,121.69727 0,67.15923 54.53803,121.69726 121.69726,121.69726 67.15923,0 121.69732,-54.53803 121.69732,-121.69726 0,-67.15923 -54.53809,-121.69727 -121.69732,-121.69727 z m 0,8.84375 c 62.37901,0 112.85152,50.47451 112.85152,112.85352 0,62.379 -50.47251,112.85156 -112.85152,112.85156 -62.379,0 -112.85351,-50.47256 -112.85351,-112.85156 0,-62.37901 50.47451,-112.85352 112.85351,-112.85352 z"
       id="path1610" />
    <path
       style="color:#000000;display:inline;fill:#889696;fill-opacity:1;-inkscape-stroke:none"
       d="m 832.58229,167.06028 c 49.13189,-45.78669 126.21242,-43.07011 171.99911,6.06173 45.7867,49.13189 43.0702,126.21246 -6.06171,171.99915 -49.13189,45.78667 -126.21249,43.07018 -171.99917,-6.0617 -45.78668,-49.13189 -43.07011,-126.2125 6.06177,-171.99918 z m 6.02935,6.46984 c -45.6348,42.52771 -48.14748,113.8638 -5.61978,159.49859 42.52771,45.6348 113.86236,48.14887 159.49715,5.62117 45.63479,-42.5277 48.15029,-113.86372 5.62257,-159.49852 -42.52768,-45.63481 -113.86516,-48.14893 -159.49994,-5.62124 z"
       id="path3210" />
    <text
       xml:space="preserve"
       style="font-style:normal;font-variant:normal;font-weight:normal;font-stretch:normal;font-size:66.6667px;font-family:sans-serif;-inkscape-font-specification:sans-serif;fill:#e0e2db;fill-opacity:1;stroke:none;stroke-width:10;stroke-linecap:butt;stroke-linejoin:miter;stroke-dasharray:none"
       id="text3231"><textPath
         xlink:href="#path3210"
         id="textPath3239"><tspan
           id="tspan3229"
           style="font-size:66.6667px">Juarez</tspan></textPath></text>
    <text
       xml:space="preserve"
       style="font-style:normal;font-variant:normal;font-weight:normal;font-stretch:normal;font-size:26.6667px;font-family:sans-serif;-inkscape-font-specification:sans-serif;fill:#e0e2db;fill-opacity:1;stroke:none;stroke-width:10;stroke-linecap:butt;stroke-linejoin:miter;stroke-dasharray:none"
       id="text3246"
       y="400.38123"
       x="833.81763"><tspan
         sodipodi:role="line"
         id="tspan3244"
         x="833.81763"
         y="400.38123"
         style="font-size:26.6667px">Full Stack Dev</tspan></text>
  </g>
</svg>
